<svg width="70" height="70" viewBox="0 0 70 70" fill="none" xmlns="http://www.w3.org/2000/svg">
<path d="M31.7615 8.77135C31.149 8.74947 30.625 9.25209 30.625 9.88646V14.2187C30.625 14.8312 31.1062 15.3125 31.7188 15.3125V15.3552C45.3469 15.8802 56.3073 26.8406 56.8323 40.4687H56.875C56.875 41.0812 57.3562 41.5625 57.9688 41.5625H62.301C62.9354 41.5625 63.438 41.0385 63.4161 40.426C62.8255 23.2323 48.9552 9.36197 31.7615 8.77135ZM31.7615 19.7088C31.149 19.687 30.625 20.2115 30.625 20.824V25.1562C30.625 25.7687 31.1062 26.25 31.7188 26.25V26.3141C39.3094 26.8172 45.3703 32.8781 45.8734 40.4687H45.9375C45.9375 41.0812 46.4187 41.5625 47.0312 41.5625H51.3635C51.976 41.5625 52.5005 41.0385 52.4786 40.426C51.888 29.2698 42.9177 20.2995 31.7615 19.7088ZM12.0312 21.875C11.4187 21.875 10.9375 22.3562 10.9375 22.9687V47.0312C10.9375 54.8625 17.325 61.25 25.1562 61.25C32.9875 61.25 39.375 54.8625 39.375 47.0312C39.375 39.2 32.9875 32.8125 25.1562 32.8125C24.5437 32.8125 24.0625 33.2937 24.0625 33.9062V40.4687C24.0625 41.0812 24.5437 41.5625 25.1562 41.5625C28.175 41.5625 30.625 44.0125 30.625 47.0312C30.625 50.05 28.175 52.5 25.1562 52.5C22.1375 52.5 19.6875 50.05 19.6875 47.0312V22.9687C19.6875 22.3562 19.2063 21.875 18.5938 21.875H12.0312Z" fill="white"/>
</svg>
